<?xml version="1.0" encoding="utf-8"?>
<!-- Generator: Adobe Illustrator 16.0.0, SVG Export Plug-In . SVG Version: 6.00 Build 0)  -->
<!DOCTYPE svg PUBLIC "-//W3C//DTD SVG 1.1//EN" "http://www.w3.org/Graphics/SVG/1.1/DTD/svg11.dtd">
<svg version="1.1" id="Layer_1" xmlns="http://www.w3.org/2000/svg" xmlns:xlink="http://www.w3.org/1999/xlink" x="0px" y="0px"
	 width="252.043px" height="45px" viewBox="0 0 252.043 45" enable-background="new 0 0 252.043 45" xml:space="preserve">
<path fill="#989898" d="M48.603,18.997c-3.53-6.792-11.054-10.238-22.378-10.243c-12.858,0-23.612,6.575-23.749,16.692
	c-0.053,3.886,1.994,8.699,4.835,11.367c3.597,3.377,9.201,5.268,15.785,5.324l0.344,0.001c4.203,0,9.014-1.403,8.522-1.259
	l1.199-0.367l-1.017-3.511c-2.962,0.978-5.392,1.358-8.662,1.358l-0.301-0.002c-5.269-0.044-15.726-2.001-16.113-12.331
	S17.7,12.66,26.243,13.182l0.136,0c6.129,0,13.81,2.207,16.629,6.425c2.911,4.355,2.532,9.471-0.902,12.166
	c-0.181,0.142-0.446,0.214-0.787,0.214c-0.813,0-1.734-0.415-1.948-0.593c-0.21-0.174-0.581-0.381-1.159-0.381
	c-1.24,0-2.981,0.999-4.657,2.023c-0.19,0.116-0.353,0.216-0.479,0.289c-0.69,0.402-0.985,1.075-0.77,1.758
	c0.428,1.354,2.734,2.338,5.483,2.338c1.515,0,3.071-0.287,4.625-0.853c2.081-0.759,4.993-3.414,6.534-7.022
	C50.006,27.071,50.804,23.232,48.603,18.997z"/>
<g>
	<g>
		<path fill="#39B24A" d="M18.645,35.991c-1.987,0-3.707-0.712-5.112-2.117c-1.405-1.39-2.118-3.104-2.118-5.094v-5.993
			c0-1.974,0.712-3.688,2.118-5.093s3.125-2.118,5.112-2.118h12.127c1.562,0,3.011,0.396,4.321,1.18L34.821,1.432h6.45
			l-0.004,26.075c0,2.33-0.84,4.352-2.496,6.008c-1.658,1.644-3.679,2.477-6.008,2.477H18.645z M20.636,20.141
			c-0.852,0-1.557,0.291-2.155,0.889c-0.612,0.601-0.909,1.305-0.909,2.155v5.197c0,0.851,0.296,1.555,0.905,2.153
			c0.604,0.615,1.309,0.911,2.159,0.911h10.136c1.201,0,2.205-0.421,3.071-1.287c0.853-0.852,1.267-1.85,1.267-3.051V24.46
			c0-1.2-0.415-2.199-1.267-3.052c-0.864-0.852-1.87-1.267-3.071-1.267H20.636z"/>
		<path fill="#FFFFFF" d="M40.771,1.932l-0.004,25.575c0,2.203-0.783,4.088-2.35,5.654c-1.566,1.553-3.452,2.33-5.655,2.33H18.645
			c-1.858,0-3.445-0.657-4.759-1.971c-1.314-1.301-1.971-2.881-1.971-4.74v-5.993c0-1.845,0.657-3.425,1.971-4.739
			c1.314-1.314,2.9-1.971,4.759-1.971h12.127c1.792,0,3.405,0.544,4.838,1.633L35.33,1.932H40.771 M20.636,31.946h10.136
			c1.327,0,2.469-0.478,3.425-1.434c0.942-0.941,1.414-2.077,1.414-3.404V24.46c0-1.328-0.471-2.462-1.414-3.405
			c-0.956-0.942-2.098-1.414-3.425-1.414H20.636c-0.982,0-1.818,0.345-2.509,1.035c-0.704,0.69-1.055,1.527-1.055,2.508v5.197
			c0,0.982,0.352,1.819,1.055,2.51C18.818,31.595,19.654,31.946,20.636,31.946 M41.771,0.932h-1H35.33h-1.018L34.33,1.95
			l0.248,13.965c-1.178-0.557-2.452-0.838-3.806-0.838H18.645c-2.125,0-3.963,0.762-5.466,2.264s-2.264,3.334-2.264,5.446v5.993
			c0,2.128,0.763,3.962,2.268,5.451c1.499,1.498,3.338,2.26,5.462,2.26h14.118c2.466,0,4.605-0.882,6.359-2.62
			c1.756-1.756,2.646-3.896,2.646-6.364l0.004-25.575V0.932L41.771,0.932z M20.636,30.946c-0.709,0-1.296-0.247-1.795-0.755
			c-0.521-0.513-0.769-1.1-0.769-1.81v-5.197c0-0.708,0.247-1.295,0.755-1.794c0.507-0.506,1.096-0.749,1.809-0.749h10.136
			c1.063,0,1.954,0.368,2.723,1.126c0.749,0.749,1.116,1.631,1.116,2.693v2.648c0,1.062-0.366,1.943-1.12,2.697
			c-0.768,0.768-1.657,1.141-2.718,1.141H20.636L20.636,30.946z"/>
	</g>
</g>
<g>
	<path fill="#39B24A" d="M82.845,35.991V23.185c0-0.851-0.291-1.556-0.889-2.155c-0.601-0.612-1.305-0.909-2.155-0.909h-7.029
		c-0.852,0-1.557,0.291-2.155,0.889c-0.597,0.609-0.889,1.315-0.889,2.155v12.826H63.57V23.185c0-0.853-0.292-1.565-0.893-2.178
		c-0.595-0.594-1.3-0.885-2.152-0.885h-5.755c-1.201,0-2.199,0.415-3.051,1.267s-1.267,1.858-1.267,3.072v11.531h-6.158V23.163
		h0.054c0.194-2.043,1.058-3.804,2.571-5.239c1.642-1.558,3.614-2.347,5.86-2.347h8.742c2.024,0,3.744,0.721,5.119,2.145
		c1.387-1.424,3.112-2.145,5.136-2.145h10.016c1.973,0,3.686,0.705,5.091,2.096c1.407,1.407,2.12,3.127,2.12,5.115v13.204H82.845z"
		/>
	<path fill="#FFFFFF" d="M81.792,16.077c1.845,0,3.425,0.651,4.739,1.951c1.314,1.314,1.971,2.901,1.971,4.759v12.704h-5.157V23.185
		c0-0.981-0.346-1.818-1.035-2.508c-0.69-0.703-1.527-1.055-2.509-1.055h-7.029c-0.983,0-1.819,0.346-2.509,1.035
		c-0.691,0.704-1.036,1.541-1.036,2.509v12.326H64.07V23.185c0-0.981-0.346-1.824-1.036-2.528c-0.69-0.689-1.527-1.035-2.509-1.035
		h-5.755c-1.328,0-2.462,0.471-3.405,1.414c-0.943,0.943-1.414,2.084-1.414,3.425v11.031h-5.158V23.663h0.02
		c0.093-2.124,0.909-3.916,2.449-5.376c1.553-1.473,3.392-2.21,5.516-2.21h8.742c2.071,0,3.776,0.796,5.118,2.39
		c1.354-1.593,3.066-2.39,5.137-2.39H81.792 M81.792,15.077H71.776c-1.994,0-3.717,0.654-5.134,1.948
		c-1.409-1.293-3.126-1.948-5.121-1.948h-8.742c-2.378,0-4.466,0.836-6.204,2.484c-1.492,1.415-2.388,3.128-2.671,5.102h-0.09
		l-0.02,1v11.828v1h1h5.158h1v-1V24.46c0-1.075,0.367-1.964,1.121-2.718c0.754-0.754,1.637-1.121,2.698-1.121h5.755
		c0.712,0,1.302,0.243,1.802,0.743c0.497,0.507,0.742,1.105,0.742,1.821v12.307v1h1h5.157h1v-1V23.165
		c0-0.703,0.245-1.294,0.75-1.809c0.493-0.493,1.082-0.735,1.795-0.735H79.8c0.709,0,1.296,0.247,1.796,0.756
		c0.505,0.506,0.749,1.096,0.749,1.808v12.307v1h1h5.157h1v-1V22.787c0-2.125-0.762-3.964-2.264-5.466
		C85.732,15.831,83.901,15.077,81.792,15.077L81.792,15.077z"/>
</g>
<g>
	<path fill="#39B24A" d="M98.772,35.991c-2.117,0-3.861-0.569-5.182-1.692c-1.347-1.158-2.028-2.692-2.028-4.562v-0.278
		c0-1.869,0.682-3.403,2.026-4.561c1.322-1.138,3.066-1.715,5.185-1.715h13.421c1.102,0,2.123,0.169,3.044,0.504v-0.8
		c0-0.674-0.282-1.273-0.862-1.83c-0.63-0.618-1.343-0.916-2.183-0.916H93.772v-4.564h20.413c1.943,0,3.647,0.69,5.064,2.051
		c1.423,1.352,2.146,2.988,2.146,4.861v6.97c-0.015,1.972-0.686,3.575-1.995,4.77c-1.315,1.172-3.068,1.764-5.215,1.764H98.772z
		 M100.764,27.548c-0.783,0-1.441,0.124-1.955,0.369c-0.743,0.355-1.089,0.846-1.089,1.541v0.278c0,0.695,0.346,1.185,1.089,1.54
		c0.523,0.244,1.182,0.369,1.955,0.369h11.43c2.729,0,3.044-1.26,3.044-2.207c0-0.683-0.346-1.166-1.089-1.521
		c-0.524-0.244-1.184-0.369-1.956-0.369H100.764z"/>
	<path fill="#FFFFFF" d="M114.185,16.077c1.818,0,3.391,0.637,4.718,1.912c1.328,1.262,1.992,2.761,1.992,4.5v6.97
		c-0.014,1.832-0.625,3.299-1.832,4.4c-1.223,1.089-2.847,1.633-4.878,1.633H98.772c-2.004,0-3.624-0.524-4.858-1.573
		c-1.234-1.062-1.852-2.456-1.852-4.182v-0.278c0-1.726,0.618-3.119,1.852-4.182s2.854-1.594,4.858-1.594h13.421
		c1.327,0,2.509,0.253,3.544,0.758v-1.554c0-0.81-0.338-1.54-1.016-2.19c-0.717-0.703-1.56-1.055-2.529-1.055H94.272v-3.564H114.185
		 M100.764,32.146h11.43c2.363,0,3.544-0.902,3.544-2.707c0-0.877-0.457-1.534-1.373-1.973c-0.598-0.278-1.323-0.418-2.171-0.418
		h-11.43c-0.863,0-1.586,0.14-2.17,0.418c-0.916,0.438-1.374,1.104-1.374,1.992v0.278c0,0.89,0.458,1.554,1.374,1.991
		C99.191,32.007,99.914,32.146,100.764,32.146 M114.185,15.077H94.272h-1v1v3.564v1h1h17.921c0.703,0,1.301,0.251,1.829,0.77
		c0.484,0.465,0.716,0.945,0.716,1.476v0.118c-0.792-0.214-1.644-0.322-2.544-0.322H98.772c-2.241,0-4.096,0.617-5.511,1.836
		c-1.459,1.256-2.2,2.918-2.2,4.939v0.278c0,2.022,0.74,3.685,2.2,4.939c1.419,1.206,3.271,1.815,5.51,1.815h15.413
		c2.273,0,4.138-0.635,5.543-1.886c1.425-1.301,2.151-3.027,2.167-5.14v-6.978c0-2.015-0.775-3.773-2.303-5.225
		C118.082,15.813,116.262,15.077,114.185,15.077L114.185,15.077z M100.764,31.146c-0.699,0-1.287-0.109-1.747-0.324
		c-0.7-0.334-0.797-0.719-0.797-1.085v-0.278c0-0.349,0.096-0.75,0.806-1.09c0.445-0.213,1.031-0.32,1.739-0.32h11.43
		c0.698,0,1.287,0.109,1.75,0.324c0.699,0.335,0.795,0.728,0.795,1.066c0,0.597,0,1.707-2.544,1.707H100.764L100.764,31.146z"/>
</g>
<g>
	<path fill="#39B24A" d="M123.956,35.991V22.728c0-1.96,0.706-3.66,2.098-5.053c1.392-1.392,3.091-2.098,5.052-2.098h17.008v4.564
		h-15.016c-0.827,0-1.521,0.285-2.121,0.873c-0.581,0.582-0.865,1.274-0.865,2.112v12.865H123.956z"/>
	<path fill="#FFFFFF" d="M147.613,16.077v3.564h-14.516c-0.957,0-1.779,0.338-2.471,1.015c-0.676,0.677-1.016,1.5-1.016,2.47v12.365
		h-5.156V22.728c0-1.832,0.65-3.398,1.951-4.7c1.3-1.3,2.867-1.951,4.699-1.951H147.613 M148.613,15.077h-1h-16.508
		c-2.098,0-3.917,0.755-5.406,2.244c-1.489,1.49-2.244,3.309-2.244,5.407v12.764v1h1h5.156h1v-1V23.126
		c0-0.699,0.236-1.275,0.724-1.763c0.493-0.483,1.072-0.722,1.763-0.722h14.516h1v-1v-3.564V15.077L148.613,15.077z"/>
</g>
<g>
	<path fill="#39B24A" d="M157.385,35.991c-2.329,0-4.35-0.833-6.006-2.475c-1.658-1.658-2.498-3.68-2.498-6.01v-3.445
		c0-2.332,0.84-4.347,2.497-5.99c1.656-1.655,3.677-2.495,6.007-2.495h18.641v4.564h-16.648c-1.214,0-2.219,0.415-3.072,1.267
		c-0.853,0.853-1.268,1.851-1.268,3.052v2.648c0,1.201,0.414,2.199,1.268,3.051c0.855,0.867,1.859,1.287,3.072,1.287h16.648v4.545
		H157.385z"/>
	<path fill="#FFFFFF" d="M175.525,16.077v3.564h-16.148c-1.342,0-2.482,0.471-3.426,1.414c-0.943,0.943-1.414,2.078-1.414,3.405
		v2.648c0,1.327,0.471,2.463,1.414,3.404c0.943,0.956,2.084,1.434,3.426,1.434h16.148v3.545h-18.141
		c-2.203,0-4.088-0.777-5.654-2.33c-1.566-1.566-2.35-3.451-2.35-5.654v-3.445c0-2.203,0.783-4.082,2.35-5.635
		c1.566-1.566,3.451-2.35,5.654-2.35H175.525 M176.525,15.077h-1h-18.141c-2.467,0-4.607,0.889-6.361,2.643
		c-1.753,1.738-2.643,3.873-2.643,6.342v3.445c0,2.468,0.889,4.608,2.643,6.361c1.757,1.741,3.896,2.623,6.361,2.623h18.141h1v-1
		v-3.545v-1h-1h-16.148c-1.072,0-1.96-0.371-2.714-1.136c-0.76-0.758-1.126-1.64-1.126-2.702V24.46c0-1.062,0.366-1.944,1.121-2.698
		c0.755-0.754,1.645-1.121,2.719-1.121h16.148h1v-1v-3.564V15.077L176.525,15.077z"/>
</g>
<g>
	<path fill="#989898" d="M179.383,35.991V15.577h6.158v20.415H179.383z M179.383,12.973l0.004-6.177h6.174v6.177H179.383z"/>
	<path fill="#FFFFFF" d="M185.061,7.295v5.177h-5.178l0.004-5.177H185.061 M185.041,16.077v19.415h-5.158V16.077H185.041
		 M186.061,6.295h-1h-5.174h-0.999l-0.001,0.999l-0.004,5.177l-0.001,1.001h1.001h5.178h1v-1V7.295V6.295L186.061,6.295z
		 M186.041,15.077h-1h-5.158h-1v1v19.415v1h1h5.158h1v-1V16.077V15.077L186.041,15.077z"/>
</g>
<g>
	<path fill="#989898" d="M195.529,35.991c-2.116,0-3.859-0.569-5.182-1.692c-1.346-1.157-2.027-2.692-2.027-4.562v-0.278
		c0-1.869,0.682-3.403,2.025-4.561c1.322-1.138,3.066-1.715,5.184-1.715h13.422c1.102,0,2.122,0.169,3.045,0.504v-0.8
		c0-0.673-0.282-1.271-0.862-1.83c-0.629-0.617-1.342-0.916-2.183-0.916h-18.422v-4.564h20.412c1.941,0,3.646,0.69,5.066,2.051
		c1.423,1.353,2.145,2.989,2.145,4.861v6.97c-0.015,1.972-0.686,3.575-1.995,4.77c-1.313,1.172-3.066,1.764-5.216,1.764H195.529z
		 M197.521,27.548c-0.784,0-1.442,0.124-1.954,0.369c-0.744,0.356-1.091,0.846-1.091,1.541v0.278c0,0.695,0.347,1.185,1.091,1.54
		c0.521,0.244,1.18,0.369,1.954,0.369h11.43c2.729,0,3.045-1.26,3.045-2.207c0-0.682-0.347-1.165-1.091-1.521
		c-0.524-0.244-1.184-0.369-1.954-0.369H197.521z"/>
	<path fill="#FFFFFF" d="M210.941,16.077c1.818,0,3.391,0.637,4.721,1.912c1.326,1.262,1.99,2.761,1.99,4.5v6.97
		c-0.014,1.832-0.625,3.299-1.832,4.4c-1.221,1.089-2.848,1.633-4.879,1.633h-15.412c-2.004,0-3.623-0.524-4.857-1.573
		c-1.234-1.062-1.852-2.456-1.852-4.182v-0.278c0-1.726,0.617-3.119,1.852-4.182s2.854-1.594,4.857-1.594h13.422
		c1.326,0,2.508,0.253,3.545,0.758v-1.554c0-0.81-0.34-1.54-1.016-2.19c-0.717-0.703-1.561-1.055-2.529-1.055h-17.922v-3.564
		H210.941 M197.521,32.146h11.43c2.361,0,3.545-0.902,3.545-2.707c0-0.877-0.459-1.534-1.375-1.973
		c-0.598-0.278-1.32-0.418-2.17-0.418h-11.43c-0.863,0-1.588,0.14-2.17,0.418c-0.916,0.438-1.375,1.104-1.375,1.992v0.278
		c0,0.89,0.459,1.554,1.375,1.991C195.947,32.007,196.67,32.146,197.521,32.146 M210.941,15.077h-19.912h-1v1v3.564v1h1h17.922
		c0.703,0,1.302,0.251,1.829,0.769c0.483,0.466,0.716,0.947,0.716,1.477v0.118c-0.793-0.214-1.645-0.322-2.545-0.322h-13.422
		c-2.241,0-4.095,0.617-5.51,1.836c-1.459,1.256-2.199,2.918-2.199,4.939v0.278c0,2.022,0.74,3.685,2.199,4.939
		c1.419,1.206,3.271,1.815,5.51,1.815h15.412c2.275,0,4.142-0.635,5.545-1.887c1.424-1.3,2.15-3.026,2.166-5.139v-6.978
		c0-2.014-0.774-3.772-2.301-5.225C214.838,15.813,213.017,15.077,210.941,15.077L210.941,15.077z M197.521,31.146
		c-0.7,0-1.288-0.108-1.745-0.323c-0.704-0.336-0.8-0.738-0.8-1.086v-0.278c0-0.348,0.096-0.75,0.807-1.09
		c0.444-0.213,1.029-0.32,1.738-0.32h11.43c0.697,0,1.285,0.109,1.748,0.324c0.701,0.336,0.797,0.728,0.797,1.066
		c0,0.597,0,1.707-2.545,1.707H197.521L197.521,31.146z"/>
</g>
<g>
	<path fill="#989898" d="M244.389,35.991V23.185c0-0.851-0.291-1.556-0.889-2.155c-0.6-0.598-1.305-0.889-2.156-0.889h-10.135
		c-1.216,0-2.221,0.415-3.072,1.267c-0.852,0.853-1.266,1.852-1.266,3.052v11.531h-6.158V23.083h0.06
		c0.218-2.017,1.094-3.758,2.605-5.18c1.627-1.543,3.592-2.326,5.839-2.326h14.119c1.973,0,3.687,0.712,5.092,2.118
		c1.405,1.405,2.117,3.118,2.117,5.093v13.204H244.389z"/>
	<path fill="#FFFFFF" d="M243.336,16.077c1.844,0,3.424,0.657,4.738,1.971c1.314,1.314,1.971,2.895,1.971,4.739v12.704h-5.156
		V23.185c0-0.981-0.346-1.818-1.035-2.508c-0.691-0.69-1.527-1.035-2.51-1.035h-10.135c-1.342,0-2.484,0.471-3.426,1.414
		c-0.941,0.943-1.412,2.078-1.412,3.405v11.031h-5.158V23.583h0.02c0.119-2.097,0.949-3.869,2.488-5.316
		c1.539-1.46,3.371-2.19,5.496-2.19H243.336 M243.336,15.077h-14.119c-2.379,0-4.46,0.829-6.185,2.465
		c-1.487,1.398-2.393,3.092-2.698,5.042h-0.102l-0.02,1v11.908v1h1h5.158h1v-1V24.46c0-1.062,0.366-1.944,1.12-2.699
		c0.753-0.753,1.642-1.12,2.718-1.12h10.135c0.713,0,1.303,0.243,1.804,0.743c0.498,0.499,0.741,1.088,0.741,1.8v12.307v1h1h5.156h1
		v-1V22.787c0-2.112-0.762-3.944-2.264-5.446C247.278,15.838,245.446,15.077,243.336,15.077L243.336,15.077z"/>
</g>
</svg>
